# xmcd CD database file
#
# Track frame offsets:
#	150
#	31945
#	55141
#	83588
#	108702
#	135977
#	156371
#	184266
#	206901
#	234459
#	256286
#
# Disc length: 3760 seconds
#
# Revision: 0
# Processed by: cddbd v1.5.2PL0 Copyright (c) Steve Scherf et al.
# Submitted via: CDex 1.77
#
DISCID=920eae0b
DTITLE=JiriLevicekTrio - Returns
DYEAR=2007
DGENRE=Jazz
TTITLE0=Returns
TTITLE1=I'llBeSeeingYou
TTITLE2=SnowInTheBackyard
TTITLE3=Habit
TTITLE4=Calling
TTITLE5=Regeneration
TTITLE6=ButBeautifull
TTITLE7=Lost&Found
TTITLE8=A_TimeForLove
TTITLE9=MondayDADA_Morning
TTITLE10=Remembrance
EXTD=YEAR: 2007
EXTT0=
EXTT1=
EXTT2=
EXTT3=
EXTT4=
EXTT5=
EXTT6=
EXTT7=
EXTT8=
EXTT9=
EXTT10=
PLAYORDER=
